# xmcd CD database file
#
# Track frame offsets:
#	150
#	13260
#	58974
#	84170
#	121432
#	138957
#	154615
#	183219
#	193776
#	213039
#	240812
#	266670
#	286350
#
# Disc length: 4071 seconds
#
# Revision: 1
# Processed by: cddbd v1.5.2PL0 Copyright (c) Steve Scherf et al.
# Submitted via: CDex 1.70beta2
#
DISCID=ad0fe50d
DTITLE=江蘇省歌舞團民族樂隊 - 無比傳真
DYEAR=2007
DGENRE=Instrumental
TTITLE0=花好月圓
TTITLE1=春江花月夜
TTITLE2=阿細跳月
TTITLE3=瑶族舞曲
TTITLE4=采茶舞曲
TTITLE5=彩雲追月
TTITLE6=月夜
TTITLE7=步步高
TTITLE8=撥根盧柴花
TTITLE9=楊柳青青
TTITLE10=霓裳曲
TTITLE11=春
TTITLE12=三六
EXTD=YEAR: 2007
EXTT0=
EXTT1=
EXTT2=
EXTT3=
EXTT4=
EXTT5=
EXTT6=
EXTT7=
EXTT8=
EXTT9=
EXTT10=
EXTT11=
EXTT12=
PLAYORDER=
